<svg width="1874" height="1700" viewBox="0 0 1874 1700" fill="none" xmlns="http://www.w3.org/2000/svg">
<path d="M1827.07 879.344C1797.32 808.997 1754.74 745.833 1700.51 691.606C1646.28 637.379 1583.12 594.798 1512.77 565.043C1439.91 534.224 1362.54 518.597 1282.83 518.597C1203.12 518.597 1125.75 534.224 1052.89 565.043C1049.3 566.559 1045.75 568.13 1042.2 569.712C1081.3 594.636 1117.65 623.822 1150.88 657.057C1153.74 659.917 1156.55 662.82 1159.35 665.727C1198.66 654.769 1240.07 648.887 1282.83 648.887C1536.69 648.887 1743.23 855.422 1743.23 1109.29C1743.23 1363.15 1536.69 1569.69 1282.83 1569.69C1028.96 1569.69 822.43 1363.15 822.43 1109.29C822.43 983.935 872.808 870.145 954.352 787.039C919.412 759.256 879.868 737.032 837.069 721.701C796.049 768.773 762.994 821.636 738.586 879.343C707.766 952.208 692.14 1029.57 692.14 1109.29C692.14 1189 707.766 1266.37 738.586 1339.23C768.34 1409.58 810.921 1472.74 865.149 1526.97C919.376 1581.19 982.54 1623.78 1052.89 1653.53C1125.75 1684.35 1203.11 1699.98 1282.83 1699.98C1362.54 1699.98 1439.91 1684.35 1512.77 1653.53C1583.12 1623.78 1646.28 1581.2 1700.51 1526.97C1754.74 1472.74 1797.32 1409.58 1827.07 1339.23C1857.89 1266.37 1873.52 1189 1873.52 1109.29C1873.52 1029.57 1857.89 952.209 1827.07 879.344Z" fill="#C9A57D"/>
<path d="M822.021 1552.73C820.685 1553.1 819.362 1553.5 818.019 1553.86C572.805 1619.56 319.852 1473.52 254.147 1228.31C188.442 983.091 334.484 730.139 579.698 664.434C824.913 598.729 1077.86 744.771 1143.57 989.985C1187.2 1152.83 1137.43 1319.06 1027.28 1431.62C1062.23 1459.39 1101.77 1481.61 1144.58 1496.93C1169.3 1468.46 1191.3 1437.59 1210.41 1404.49C1248.75 1338.08 1273.54 1266.04 1284.07 1190.39C1294.98 1112.03 1290.05 1033.26 1269.42 956.264C1248.79 879.267 1213.67 808.583 1165.04 746.177C1118.1 685.929 1060.62 635.938 994.202 597.593C927.788 559.249 855.756 534.466 780.105 523.933C748.224 519.494 716.275 517.678 684.404 518.474L680.03 502.15C677.113 491.265 670.117 482.566 661.132 477.242L757.476 272.156L650.696 300.768L629.378 472.84C629.352 472.847 629.326 472.852 629.299 472.859L578.454 486.483L599.775 314.413L387.302 371.345L491.801 509.702L440.957 523.326C440.931 523.333 440.906 523.342 440.879 523.349L336.379 384.99L229.599 413.602L415.578 543.04C410.458 552.144 408.749 563.174 411.665 574.06L416.051 590.429C388.056 605.674 361.277 623.18 335.889 642.962C275.641 689.909 225.65 747.388 187.306 813.802C148.962 880.216 124.179 952.249 113.646 1027.9C102.736 1106.26 107.665 1185.03 128.296 1262.03C148.927 1339.03 184.045 1409.71 232.673 1472.12C279.62 1532.36 337.099 1582.35 403.513 1620.7C469.927 1659.04 541.96 1683.83 617.611 1694.36C695.97 1705.27 774.742 1700.34 851.74 1679.71C881.908 1671.63 911.09 1661.29 939.201 1648.81C900.13 1623.9 863.812 1594.73 830.6 1561.52C827.702 1558.62 824.859 1555.68 822.021 1552.73Z" fill="#C9A57D"/>
<path d="M839.171 167.052C850.032 173.323 858.325 183.233 862.583 195.029L874.551 228.186L868.337 193.487C866.126 181.142 868.353 168.413 874.624 157.552C880.895 146.691 890.805 138.398 902.601 134.14L935.758 122.172L901.059 128.386C888.714 130.597 875.985 128.37 865.124 122.099C854.263 115.828 845.97 105.918 841.712 94.1218L829.744 60.9648L835.958 95.6638C838.169 108.009 835.942 120.738 829.671 131.598C823.4 142.459 813.49 150.752 801.694 155.01L768.537 166.978L803.236 160.764C815.581 158.555 828.31 160.782 839.171 167.052Z" fill="#C9A57D"/>
<path d="M760.193 386.65C761.263 392.622 760.185 398.78 757.152 404.034C754.119 409.288 749.325 413.3 743.618 415.36L727.578 421.15L744.364 418.144C750.336 417.075 756.494 418.152 761.747 421.185C767.001 424.219 771.013 429.013 773.073 434.719L778.863 450.759L775.857 433.973C774.788 428.001 775.865 421.844 778.898 416.589C781.932 411.335 786.726 407.323 792.432 405.263L808.472 399.473L791.686 402.479C785.714 403.548 779.556 402.471 774.302 399.438C769.048 396.404 765.036 391.61 762.976 385.904L757.186 369.864L760.193 386.65Z" fill="#C9A57D"/>
<path d="M620.045 59.812C626.168 63.347 630.844 68.935 633.245 75.585L639.993 94.279L636.49 74.715C635.243 67.755 636.499 60.578 640.034 54.455C643.569 48.331 649.157 43.656 655.807 41.255L674.501 34.507L654.938 38.01C647.978 39.256 640.801 38.001 634.678 34.466C628.555 30.93 623.879 25.343 621.479 18.693L614.731 0L618.234 19.564C619.48 26.524 618.225 33.7 614.689 39.824C611.154 45.948 605.566 50.623 598.916 53.024L580.222 59.772L599.785 56.269C606.745 55.021 613.922 56.277 620.045 59.812Z" fill="#C9A57D"/>
<path d="M134.064 340.07L167.221 328.102L132.522 334.316C120.177 336.527 107.448 334.3 96.587 328.029C85.726 321.758 77.433 311.848 73.175 300.052L61.207 266.895L67.421 301.594C69.632 313.939 67.405 326.668 61.134 337.529C54.863 348.39 44.953 356.683 33.157 360.941L0 372.909L34.699 366.695C47.044 364.484 59.773 366.711 70.634 372.982C81.495 379.253 89.788 389.163 94.046 400.959L106.014 434.116L99.8 399.417C97.589 387.072 99.816 374.344 106.087 363.483C112.358 352.621 122.268 344.328 134.064 340.07Z" fill="#C9A57D"/>
<path d="M264.924 543.625L248.884 549.415L265.67 546.409C271.642 545.34 277.8 546.417 283.054 549.45C288.308 552.484 292.32 557.278 294.38 562.984L300.17 579.024L297.164 562.238C296.094 556.266 297.172 550.109 300.205 544.854C303.238 539.6 308.032 535.588 313.739 533.528L329.779 527.738L312.993 530.744C307.021 531.813 300.863 530.736 295.61 527.703C290.356 524.669 286.344 519.875 284.284 514.169L278.494 498.129L281.5 514.915C282.569 520.887 281.492 527.045 278.459 532.299C275.424 537.553 270.63 541.565 264.924 543.625Z" fill="#C9A57D"/>
<path d="M222.247 166.402C228.37 169.937 233.046 175.525 235.447 182.175L242.195 200.869L238.691 181.305C237.445 174.345 238.7 167.168 242.236 161.045C245.771 154.921 251.359 150.246 258.009 147.845L276.703 141.097L257.139 144.6C250.179 145.846 243.002 144.591 236.879 141.055C230.755 137.52 226.08 131.932 223.679 125.282L216.931 106.588L220.434 126.152C221.681 133.112 220.425 140.289 216.89 146.412C213.355 152.536 207.767 157.211 201.117 159.612L182.423 166.36L201.986 162.857C208.947 161.611 216.123 162.867 222.247 166.402Z" fill="#C9A57D"/>
<path d="M621.009 143.04L505.764 173.92L608.532 243.742L621.009 143.04Z" fill="#C9A57D"/>
<path d="M564.909 273.173L454.819 198.376L396.878 318.197L564.909 273.173Z" fill="#C9A57D"/>
<path d="M398.473 202.668L283.227 233.548L344.384 314.52L398.473 202.668Z" fill="#C9A57D"/>
<path d="M657.181 248.449L747.196 224.329L668.68 155.645L657.181 248.449Z" fill="#C9A57D"/>
<path d="M214.591 367.04L304.606 342.921L248.246 268.3L214.591 367.04Z" fill="#C9A57D"/>
</svg>
